<svg width="73" height="65" viewBox="0 0 73 65" fill="none" xmlns="http://www.w3.org/2000/svg">
<g filter="url(#filter0_i)">
<g filter="url(#filter1_d)">
<ellipse cx="36.5" cy="32" rx="32.5" ry="25" fill="#060606"/>
</g>
<g filter="url(#filter2_d)">
<ellipse cx="36.5" cy="32" rx="28.5" ry="22" fill="#FCF7F7"/>
<path d="M64 32C64 43.3727 51.944 53 36.5 53C21.056 53 9 43.3727 9 32C9 20.6273 21.056 11 36.5 11C51.944 11 64 20.6273 64 32Z" stroke="#030303" stroke-width="2"/>
</g>
<g filter="url(#filter3_d)">
<path d="M30.324 39.54C28.884 39.54 27.456 39.408 26.04 39.144C24.648 38.904 23.508 38.568 22.62 38.136V34.824C24.924 35.904 27.408 36.444 30.072 36.444C33.816 36.444 35.688 35.184 35.688 32.664C35.688 31.8 35.484 31.104 35.076 30.576C34.668 30.048 34.08 29.592 33.312 29.208C32.544 28.8 31.296 28.248 29.568 27.552C27.192 26.592 25.476 25.536 24.42 24.384C23.364 23.232 22.836 21.78 22.836 20.028C22.836 18.708 23.196 17.544 23.916 16.536C24.636 15.504 25.644 14.712 26.94 14.16C28.236 13.584 29.724 13.296 31.404 13.296C32.772 13.296 34.008 13.404 35.112 13.62C36.216 13.836 37.296 14.184 38.352 14.664V17.832C36.264 16.896 34.152 16.428 32.016 16.428C30.288 16.428 28.968 16.74 28.056 17.364C27.144 17.988 26.688 18.876 26.688 20.028C26.688 20.82 26.88 21.492 27.264 22.044C27.672 22.572 28.26 23.052 29.028 23.484C29.82 23.892 30.984 24.408 32.52 25.032C34.224 25.728 35.568 26.388 36.552 27.012C37.536 27.636 38.28 28.404 38.784 29.316C39.312 30.204 39.576 31.32 39.576 32.664C39.576 34.848 38.796 36.54 37.236 37.74C35.676 38.94 33.372 39.54 30.324 39.54Z" fill="#F8FCFB"/>
<path d="M26.04 39.144L26.4066 37.1779L26.3932 37.1754L26.3798 37.1731L26.04 39.144ZM22.62 38.136H20.62V39.3871L21.7451 39.9345L22.62 38.136ZM22.62 34.824L23.4689 33.0131L20.62 31.6777V34.824H22.62ZM35.076 30.576L36.6586 29.3531L36.6586 29.3531L35.076 30.576ZM33.312 29.208L32.3737 30.9742L32.3955 30.9858L32.4176 30.9969L33.312 29.208ZM29.568 27.552L28.8188 29.4064L28.8208 29.4072L29.568 27.552ZM24.42 24.384L22.9457 25.7354L22.9457 25.7354L24.42 24.384ZM23.916 16.536L25.5435 17.6985L25.5499 17.6895L25.5563 17.6804L23.916 16.536ZM26.94 14.16L27.7237 16L27.738 15.9939L27.7523 15.9876L26.94 14.16ZM38.352 14.664H40.352V13.3762L39.1796 12.8433L38.352 14.664ZM38.352 17.832L37.5339 19.657L40.352 20.9203V17.832H38.352ZM28.056 17.364L29.1854 19.0146L29.1854 19.0146L28.056 17.364ZM27.264 22.044L25.6222 23.1861L25.6508 23.2273L25.6814 23.2669L27.264 22.044ZM29.028 23.484L28.0475 25.2271L28.0795 25.2451L28.1121 25.2619L29.028 23.484ZM32.52 25.032L33.2763 23.1805L33.2728 23.1791L32.52 25.032ZM36.552 27.012L35.4809 28.701L35.4809 28.701L36.552 27.012ZM38.784 29.316L37.0335 30.2834L37.0488 30.311L37.0649 30.3382L38.784 29.316ZM37.236 37.74L38.4554 39.3252L38.4554 39.3252L37.236 37.74ZM30.324 37.54C29.007 37.54 27.7017 37.4193 26.4066 37.1779L25.6734 41.1101C27.2103 41.3967 28.761 41.54 30.324 41.54V37.54ZM26.3798 37.1731C25.1008 36.9526 24.1581 36.6601 23.4949 36.3375L21.7451 39.9345C22.8579 40.4759 24.1952 40.8554 25.7002 41.1149L26.3798 37.1731ZM24.62 38.136V34.824H20.62V38.136H24.62ZM21.7711 36.6349C24.3533 37.8453 27.1287 38.444 30.072 38.444V34.444C27.6873 34.444 25.4947 33.9627 23.4689 33.0131L21.7711 36.6349ZM30.072 38.444C32.1055 38.444 33.9818 38.1132 35.4008 37.1582C36.9604 36.1084 37.688 34.4985 37.688 32.664H33.688C33.688 33.3495 33.4796 33.6296 33.1672 33.8398C32.7142 34.1448 31.7825 34.444 30.072 34.444V38.444ZM37.688 32.664C37.688 31.4888 37.4078 30.3227 36.6586 29.3531L33.4934 31.7989C33.5602 31.8853 33.688 32.1112 33.688 32.664H37.688ZM36.6586 29.3531C36.0218 28.529 35.169 27.9004 34.2064 27.4191L32.4176 30.9969C32.991 31.2836 33.3142 31.567 33.4934 31.7989L36.6586 29.3531ZM34.2503 27.4418C33.3832 26.9811 32.0523 26.3965 30.3152 25.6968L28.8208 29.4072C30.5397 30.0995 31.7048 30.6189 32.3737 30.9742L34.2503 27.4418ZM30.3172 25.6976C28.0618 24.7864 26.6602 23.8681 25.8943 23.0326L22.9457 25.7354C24.2918 27.2039 26.3222 28.3976 28.8188 29.4064L30.3172 25.6976ZM25.8943 23.0326C25.2181 22.2949 24.836 21.345 24.836 20.028H20.836C20.836 22.215 21.5099 24.1691 22.9457 25.7354L25.8943 23.0326ZM24.836 20.028C24.836 19.0959 25.0821 18.3445 25.5435 17.6985L22.2885 15.3735C21.3099 16.7435 20.836 18.3201 20.836 20.028H24.836ZM25.5563 17.6804C26.0367 16.9918 26.7304 16.4231 27.7237 16L26.1563 12.32C24.5576 13.0009 23.2353 14.0162 22.2757 15.3916L25.5563 17.6804ZM27.7523 15.9876C28.7498 15.5443 29.9529 15.296 31.404 15.296V11.296C29.4951 11.296 27.7222 11.6237 26.1277 12.3324L27.7523 15.9876ZM31.404 15.296C32.6696 15.296 33.7741 15.3962 34.728 15.5828L35.496 11.6572C34.2419 11.4118 32.8744 11.296 31.404 11.296V15.296ZM34.728 15.5828C35.6744 15.768 36.6058 16.0672 37.5244 16.4847L39.1796 12.8433C37.9862 12.3008 36.7576 11.904 35.496 11.6572L34.728 15.5828ZM36.352 14.664V17.832H40.352V14.664H36.352ZM39.1701 16.007C36.8434 14.964 34.4537 14.428 32.016 14.428V18.428C33.8503 18.428 35.6846 18.828 37.5339 19.657L39.1701 16.007ZM32.016 14.428C30.0952 14.428 28.3105 14.7666 26.9266 15.7134L29.1854 19.0146C29.6255 18.7134 30.4808 18.428 32.016 18.428V14.428ZM26.9266 15.7134C25.4428 16.7287 24.688 18.2492 24.688 20.028H28.688C28.688 19.5027 28.8452 19.2473 29.1854 19.0146L26.9266 15.7134ZM24.688 20.028C24.688 21.1539 24.9658 22.2426 25.6222 23.1861L28.9058 20.9019C28.7942 20.7414 28.688 20.4861 28.688 20.028H24.688ZM25.6814 23.2669C26.2967 24.0631 27.117 24.7038 28.0475 25.2271L30.0085 21.7408C29.403 21.4002 29.0473 21.0809 28.8466 20.8211L25.6814 23.2669ZM28.1121 25.2619C28.9846 25.7114 30.2142 26.254 31.7672 26.8849L33.2728 23.1791C31.7538 22.562 30.6554 22.0726 29.9439 21.706L28.1121 25.2619ZM31.7638 26.8835C33.4133 27.5573 34.6369 28.1658 35.4809 28.701L37.6231 25.323C36.4991 24.6102 35.0347 23.8987 33.2763 23.1805L31.7638 26.8835ZM35.4809 28.701C36.2156 29.1669 36.7103 29.6985 37.0335 30.2834L40.5345 28.3486C39.8497 27.1095 38.8564 26.1051 37.6231 25.323L35.4809 28.701ZM37.0649 30.3382C37.3616 30.8371 37.576 31.5739 37.576 32.664H41.576C41.576 31.0661 41.2624 29.5709 40.5031 28.2938L37.0649 30.3382ZM37.576 32.664C37.576 34.3051 37.0257 35.3785 36.0166 36.1548L38.4554 39.3252C40.5663 37.7015 41.576 35.3909 41.576 32.664H37.576ZM36.0166 36.1548C34.9517 36.9739 33.1587 37.54 30.324 37.54V41.54C33.5853 41.54 36.4003 40.9061 38.4554 39.3252L36.0166 36.1548Z" fill="black"/>
</g>
<g filter="url(#filter4_d)">
<path d="M38.664 21.836H42.192L52.236 47H48.492L45.972 40.736H34.848L32.4 47H28.62L38.664 21.836ZM44.964 37.676L40.428 25.904L35.892 37.676H44.964Z" fill="#F8FCFB"/>
<path d="M38.664 21.836V19.836H37.3089L36.8065 21.0946L38.664 21.836ZM42.192 21.836L44.0495 21.0946L43.5471 19.836H42.192V21.836ZM52.236 47V49H55.1877L54.0935 46.2586L52.236 47ZM48.492 47L46.6365 47.7465L47.1408 49H48.492V47ZM45.972 40.736L47.8275 39.9895L47.3232 38.736H45.972V40.736ZM34.848 40.736V38.736H33.4823L32.9852 40.008L34.848 40.736ZM32.4 47V49H33.7657L34.2628 47.728L32.4 47ZM28.62 47L26.7625 46.2586L25.6683 49H28.62V47ZM44.964 37.676V39.676H47.878L46.8303 36.9569L44.964 37.676ZM40.428 25.904L42.2943 25.1849L40.428 20.3415L38.5618 25.1849L40.428 25.904ZM35.892 37.676L34.0258 36.9569L32.978 39.676H35.892V37.676ZM38.664 23.836H42.192V19.836H38.664V23.836ZM40.3345 22.5774L50.3785 47.7414L54.0935 46.2586L44.0495 21.0946L40.3345 22.5774ZM52.236 45H48.492V49H52.236V45ZM50.3475 46.2535L47.8275 39.9895L44.1165 41.4825L46.6365 47.7465L50.3475 46.2535ZM45.972 38.736H34.848V42.736H45.972V38.736ZM32.9852 40.008L30.5372 46.272L34.2628 47.728L36.7108 41.464L32.9852 40.008ZM32.4 45H28.62V49H32.4V45ZM30.4775 47.7414L40.5215 22.5774L36.8065 21.0946L26.7625 46.2586L30.4775 47.7414ZM46.8303 36.9569L42.2943 25.1849L38.5618 26.6231L43.0978 38.3951L46.8303 36.9569ZM38.5618 25.1849L34.0258 36.9569L37.7582 38.3951L42.2943 26.6231L38.5618 25.1849ZM35.892 39.676H44.964V35.676H35.892V39.676Z" fill="black"/>
</g>
</g>
<defs>
<filter id="filter0_i" x="4" y="7" width="65" height="54" filterUnits="userSpaceOnUse" color-interpolation-filters="sRGB">
<feFlood flood-opacity="0" result="BackgroundImageFix"/>
<feBlend mode="normal" in="SourceGraphic" in2="BackgroundImageFix" result="shape"/>
<feColorMatrix in="SourceAlpha" type="matrix" values="0 0 0 0 0 0 0 0 0 0 0 0 0 0 0 0 0 0 127 0" result="hardAlpha"/>
<feOffset dy="4"/>
<feGaussianBlur stdDeviation="2.5"/>
<feComposite in2="hardAlpha" operator="arithmetic" k2="-1" k3="1"/>
<feColorMatrix type="matrix" values="0 0 0 0 0 0 0 0 0 0 0 0 0 0 0 0 0 0 0.25 0"/>
<feBlend mode="normal" in2="shape" result="effect1_innerShadow"/>
</filter>
<filter id="filter1_d" x="0" y="7" width="73" height="58" filterUnits="userSpaceOnUse" color-interpolation-filters="sRGB">
<feFlood flood-opacity="0" result="BackgroundImageFix"/>
<feColorMatrix in="SourceAlpha" type="matrix" values="0 0 0 0 0 0 0 0 0 0 0 0 0 0 0 0 0 0 127 0"/>
<feOffset dy="4"/>
<feGaussianBlur stdDeviation="2"/>
<feColorMatrix type="matrix" values="0 0 0 0 0 0 0 0 0 0 0 0 0 0 0 0 0 0 0.25 0"/>
<feBlend mode="normal" in2="BackgroundImageFix" result="effect1_dropShadow"/>
<feBlend mode="normal" in="SourceGraphic" in2="effect1_dropShadow" result="shape"/>
</filter>
<filter id="filter2_d" x="4" y="10" width="65" height="52" filterUnits="userSpaceOnUse" color-interpolation-filters="sRGB">
<feFlood flood-opacity="0" result="BackgroundImageFix"/>
<feColorMatrix in="SourceAlpha" type="matrix" values="0 0 0 0 0 0 0 0 0 0 0 0 0 0 0 0 0 0 127 0"/>
<feOffset dy="4"/>
<feGaussianBlur stdDeviation="2"/>
<feColorMatrix type="matrix" values="0 0 0 0 0 0 0 0 0 0 0 0 0 0 0 0 0 0 0.25 0"/>
<feBlend mode="normal" in2="BackgroundImageFix" result="effect1_dropShadow"/>
<feBlend mode="normal" in="SourceGraphic" in2="effect1_dropShadow" result="shape"/>
</filter>
<filter id="filter3_d" x="16.62" y="11.296" width="28.956" height="38.244" filterUnits="userSpaceOnUse" color-interpolation-filters="sRGB">
<feFlood flood-opacity="0" result="BackgroundImageFix"/>
<feColorMatrix in="SourceAlpha" type="matrix" values="0 0 0 0 0 0 0 0 0 0 0 0 0 0 0 0 0 0 127 0"/>
<feOffset dy="4"/>
<feGaussianBlur stdDeviation="2"/>
<feColorMatrix type="matrix" values="0 0 0 0 0 0 0 0 0 0 0 0 0 0 0 0 0 0 0.25 0"/>
<feBlend mode="normal" in2="BackgroundImageFix" result="effect1_dropShadow"/>
<feBlend mode="normal" in="SourceGraphic" in2="effect1_dropShadow" result="shape"/>
</filter>
<filter id="filter4_d" x="21.6683" y="19.836" width="37.5194" height="37.164" filterUnits="userSpaceOnUse" color-interpolation-filters="sRGB">
<feFlood flood-opacity="0" result="BackgroundImageFix"/>
<feColorMatrix in="SourceAlpha" type="matrix" values="0 0 0 0 0 0 0 0 0 0 0 0 0 0 0 0 0 0 127 0"/>
<feOffset dy="4"/>
<feGaussianBlur stdDeviation="2"/>
<feColorMatrix type="matrix" values="0 0 0 0 0 0 0 0 0 0 0 0 0 0 0 0 0 0 0.25 0"/>
<feBlend mode="normal" in2="BackgroundImageFix" result="effect1_dropShadow"/>
<feBlend mode="normal" in="SourceGraphic" in2="effect1_dropShadow" result="shape"/>
</filter>
</defs>
</svg>
